<?xml version="1.0" encoding="utf-8"?>
<!-- Generator: Adobe Illustrator 27.5.0, SVG Export Plug-In . SVG Version: 6.00 Build 0)  -->
<svg version="1.1" id="Layer_1" xmlns="http://www.w3.org/2000/svg" xmlns:xlink="http://www.w3.org/1999/xlink" x="0px" y="0px"
	 viewBox="0 0 4000 4000" style="enable-background:new 0 0 4000 4000;" xml:space="preserve">
<g>
	<g>
		<rect style="fill:#0BCBFF;" width="4000" height="4000"/>
	</g>
	<g>
		<g style="opacity:0.2;">
			<ellipse style="fill:#650000;" cx="2125" cy="3461.722" rx="960" ry="108.745"/>
		</g>
		<g>
			<g>
				<path style="fill:#F44906;" d="M2791.2,2968.55l-361.4-704.85L1757.7,952.9c75.8-238.8,734-340.7,1104.45-153.75
					c80.85,40.8,145.8,104.3,189.4,180.5c35.25,61.6,56.6,131.55,61.1,204.55l29.3,475.4v363.251
					C3217.35,2730.65,3041.3,2947.9,2791.2,2968.55z"/>
			</g>
			<g style="opacity:0.55;">
				<path style="fill:#FFFFFF;" d="M3064.4,1003.7c-43.4-70.25-105.35-128.65-181.4-167.05
					C2512.55,649.7,1854.35,751.6,1778.55,990.4l1014.2,1978c-0.5,0.05-1.05,0.1-1.55,0.15L1757.7,952.9
					c75.8-238.8,734-340.7,1104.45-153.75C2951.35,844.2,3021.2,916.8,3064.4,1003.7z"/>
			</g>
			<g>
				<g>
					<path style="fill:#FFFFFF;" d="M2148.684,741.211c-0.359,0.225-1.187,1.023-1.929,1.721c-0.745,0.662-1.506,1.448-2.268,2.261
						c-1.538,1.572-3.074,3.181-4.531,4.954c-3.062,3.362-5.752,7.139-8.604,10.815c-5.273,7.654-10.288,15.679-14.321,24.25
						c-8.196,17.06-13.928,35.693-16.135,55.117c-0.676,4.839-0.623,9.741-0.984,14.658c-0.105,2.458-0.327,4.932-0.342,7.402
						l0.403,7.405c0.344,4.939,0.366,9.963,0.967,14.919l2.417,14.853c0.439,2.48,0.732,5.01,1.294,7.468l1.997,7.31l4.021,14.729
						c3.24,9.646,7.214,19.089,10.84,28.765c-5.056-8.909-10.535-17.725-15.344-26.924l-6.426-14.224l-3.228-7.163
						c-0.977-2.427-1.689-4.949-2.549-7.427l-4.954-15.029c-1.453-5.078-2.332-10.315-3.523-15.513l-1.672-7.842
						c-0.405-2.639-0.603-5.305-0.913-7.971c-0.469-5.332-1.338-10.701-1.453-16.096c-0.967-21.638,2.002-43.669,8.342-64.932
						c3.108-10.671,7.415-21.001,12.29-31.162c2.678-4.966,5.229-10.022,8.357-14.856c1.45-2.456,3.091-4.875,4.788-7.285
						c0.82-1.206,1.67-2.417,2.649-3.657c0.947-1.23,1.785-2.383,3.218-3.997L2148.684,741.211z"/>
				</g>
				<g>
					<path style="fill:#FFFFFF;" d="M2539.5,710.242c15.283,14.419,28.513,31.194,39.604,49.524
						c11.035,18.352,19.736,38.665,23.945,60.637c4.426,21.88,3.694,45.469-2.561,67.881c-6.243,22.434-17.908,43.171-32.073,61.306
						l-28.772-26.211c13.767-12.92,25.542-27.822,33.342-44.878c7.754-17.024,11.602-36.152,10.74-55.793
						c-0.64-19.651-5.571-39.59-13.32-58.579C2562.62,745.142,2552.354,726.804,2539.5,710.242z"/>
				</g>
				<g>
					<path style="fill:#FFFFFF;" d="M2935.876,828.242c12.004,38.909,21.221,78.843,25.222,119.526
						c4.016,40.608,2.566,82.06-6.57,121.87c-9.014,39.805-25.85,77.578-48.918,110.569c-23.015,33.088-51.897,61.411-83.643,85.288
						c29.976-26.079,56.448-56.167,76.494-89.917c20.122-33.677,33.511-70.908,39.343-109.146
						c5.938-38.259,4.497-77.295-2.031-115.337c-6.523-38.101-17.944-75.278-31.975-111.419L2935.876,828.242z"/>
				</g>
				<g>
					<path style="fill:#FFFFFF;" d="M3116.155,1241.27c4.768,51.926-1.692,104.712-14.868,155.435
						c-13.269,50.801-33.257,99.89-58.45,146.27c-25.264,46.343-55.789,90.144-92.395,129.209
						c-18.308,19.512-38.235,37.771-60.178,53.945c-21.943,16.128-45.952,30.251-72.505,40.303l-12.439-36.88
						c22.649-6.992,44.719-18.003,65.542-31.411c20.847-13.433,40.515-29.255,58.923-46.58
						c36.851-34.692,68.982-75.022,96.26-118.42c27.234-43.45,49.775-90.144,65.903-139.17
						C3107.976,1344.998,3117.668,1293.379,3116.155,1241.27z"/>
				</g>
				<g>
					<path style="fill:#FFFFFF;" d="M2918.162,2305.071c20.764-0.051,41.46-1.292,61.992-3.274
						c20.525-2.012,40.898-4.924,60.85-9.019c19.922-4.131,39.502-9.407,57.791-16.631c18.259-7.117,35.286-16.516,48.049-28.193
						l23.755,30.83c-20.393,13.303-42.039,20.547-63.359,25.305c-21.377,4.756-42.69,6.973-63.843,8
						c-21.157,0.974-42.175,0.659-63.057-0.564C2959.465,2310.271,2938.701,2308.254,2918.162,2305.071z"/>
				</g>
				<g>
					<path style="fill:#FFFFFF;" d="M2864.514,2690.081c1.565,5.623,3.994,12.412,6.431,18.584
						c2.451,6.321,5.161,12.59,8.081,18.765c5.828,12.371,12.505,24.382,20.068,35.908c7.722,11.375,16.418,22.117,26.277,31.982
						c10.046,9.607,21.416,17.939,34.146,24.622c-13.828-3.618-27.388-9.351-40.068-16.904
						c-12.476-7.778-24.231-16.931-35.151-27.061c-10.745-10.259-20.771-21.343-30.032-33.088
						c-4.644-5.872-9.092-11.904-13.335-18.135c-4.331-6.335-8.237-12.297-12.349-19.719L2864.514,2690.081z"/>
				</g>
			</g>
			<g style="opacity:0.3;">
				<path style="fill:#650000;" d="M2788.15,2962.55L2429.8,2263.7l375.1-1189c0,0,53.2-177.45,156.25-157.35
					c16,19.55,30.25,40.4,42.8,62.3c35.25,61.6,56.6,131.55,61.1,204.55l29.3,475.4v363.251
					C3165.2,2687.8,3014.1,2919.8,2788.15,2962.55z"/>
			</g>
			<g>
				<path style="fill:#650000;" d="M773.909,1714.236l214.28,623.306c4.805,13.977-2.629,29.204-16.607,34.009
					c-13.977,4.805-29.202-2.632-34.006-16.606c-0.073-0.212-0.181-0.54-0.247-0.752l-195.786-629.36
					c-2.795-8.979,2.222-18.525,11.201-21.318C761.555,1700.771,770.918,1705.574,773.909,1714.236z"/>
			</g>
			<g>
				<path style="fill:#650000;" d="M2791.212,2983.127c-7.52,0-13.901-5.771-14.531-13.396c-0.664-8.035,5.313-15.083,13.345-15.747
					c97.085-8.015,171.777-45.154,228.345-113.538c115.225-139.287,151.924-413.838,109.072-816.028
					c-0.054-0.513-0.083-1.028-0.083-1.545v-362.8l-29.292-474.978c-9.834-159.47-102.759-302.358-242.505-372.898
					c-266.533-134.541-664.307-114.69-894.878-17.766c-103.706,43.591-169.087,99.912-189.077,162.869
					c-2.441,7.683-10.659,11.929-18.33,9.495c-7.681-2.439-11.934-10.647-9.492-18.328c22.661-71.365,93.75-133.936,205.586-180.945
					c236.68-99.49,645.264-119.732,919.346,18.616c148.97,75.195,248.013,227.38,258.481,397.161l29.321,475.427
					c0.02,0.3,0.029,0.598,0.029,0.898v362.473c44.204,415.654,6.362,689.424-115.684,836.955
					c-60.986,73.721-144.575,115.447-248.438,124.023C2792.017,2983.11,2791.612,2983.127,2791.212,2983.127z"/>
			</g>
			<g>
				<g>
					<path style="fill:#FFFFFF;" d="M1196.15,1622.8c0,109.249-58.05,197.85-129.75,197.85H817.3c-3.4,0-6.75-0.2-10.1-0.6
						c-58.3-6.801-105.75-72.35-117.05-157.9c-1.7-12.7-2.6-25.85-2.6-39.349c0-109.25,58.05-197.85,129.75-197.85h249.1
						C1138.1,1424.95,1196.15,1513.55,1196.15,1622.8z"/>
				</g>
				<g>
					<path style="fill:#650000;" d="M1066.402,1823.151H817.3c-3.467,0-6.968-0.208-10.4-0.618
						c-58.652-6.843-107.685-72.661-119.229-160.056c-1.738-12.974-2.622-26.326-2.622-39.678
						c0-110.474,59.326-200.349,132.251-200.349h249.102c72.92,0,132.246,89.876,132.246,200.349
						C1198.648,1733.273,1139.322,1823.151,1066.402,1823.151z M817.3,1427.45c-70.166,0-127.251,87.634-127.251,195.349
						c0,13.13,0.869,26.257,2.578,39.019c11.245,85.127,58.477,149.17,114.858,155.75c3.242,0.388,6.543,0.583,9.814,0.583h249.102
						c70.166,0,127.246-87.634,127.246-195.352c0-107.715-57.08-195.349-127.246-195.349H817.3z"/>
				</g>
			</g>
			<g>
				<g>
					<g>
						<path style="fill:#FFFFFF;" d="M1903.8,3124.3V3376.6c0,38.75-31.4,70.099-70.15,70.099H1595.8
							c-27.25,0-50.15-21.349-51.1-48.55c-3.05-87,70-136.05,156.55-115.9l-12.25-98.1l-6.7-53.5
							C1682.3,3130.65,1725.4,3009.45,1903.8,3124.3z"/>
					</g>
					<g>
						<path style="fill:#650000;" d="M1833.648,3449.201h-237.847c-28.574,0-52.617-22.861-53.604-50.962
							c-1.382-39.448,12.842-73.503,40.049-95.891c29.556-24.314,71.689-32.729,116.084-23.308l-18.584-148.667l0.2-0.559
							c0.542-1.533,13.828-37.705,55.557-51.931c43.745-14.912,100.816,0.002,169.649,44.316l1.147,0.737v253.665
							C1906.3,3416.633,1873.707,3449.201,1833.648,3449.201z M1663.316,3280.268c-29.912,0-57.168,8.889-77.891,25.94
							c-25.977,21.377-39.556,53.999-38.228,91.855c0.889,25.439,22.695,46.138,48.604,46.138h237.847
							c37.305,0,67.651-30.325,67.651-67.6v-250.935c-66.919-42.842-122.129-57.336-164.092-43.081
							c-36.787,12.498-50.561,43.923-52.349,48.381l19.316,154.531l-3.491-0.813
							C1687.965,3281.723,1675.426,3280.268,1663.316,3280.268z"/>
					</g>
				</g>
			</g>
			<g style="opacity:0.3;">
				<g>
					<path style="fill:#650000;" d="M1903.8,3322.3v54.301c0,38.75-31.4,70.099-70.15,70.099H1595.8
						c-27.25,0-50.15-21.349-51.1-48.55c-0.45-13.3,0.85-25.7,3.75-37.15c7.65,18.5,26.2,31.4,47.35,31.4h237.85
						C1872.4,3392.4,1903.8,3361.05,1903.8,3322.3z"/>
				</g>
			</g>
			<g>
				<path style="fill:#6D445B;" d="M1196.174,1622.795c0,109.27-58.089,197.862-129.751,197.862h-249.14
					c71.614,0,129.703-88.593,129.703-197.862c0-109.269-58.089-197.862-129.703-197.862h249.14
					C1138.085,1424.933,1196.174,1513.526,1196.174,1622.795z"/>
			</g>
			<g style="opacity:0.3;">
				<path style="fill:#650000;" d="M1196.15,1622.8c0,109.249-58.05,197.85-129.75,197.85H817.3c53.8,0,100-50,119.6-121.25h151.85
					c44.55,0,83.9-34.3,107.25-86.5C1196.1,1616.2,1196.15,1619.5,1196.15,1622.8z"/>
			</g>
			<g style="opacity:0.55;">
				<path style="fill:#FFFFFF;" d="M1196.15,1627.8c0,4.6-0.1,9.199-0.35,13.75c-4.6-102.85-60.75-184.1-129.4-184.1H883.3
					c-19.35-17.45-41.9-27.5-66-27.5h249.1C1138.1,1429.95,1196.15,1518.55,1196.15,1627.8z"/>
			</g>
			<g style="opacity:0.3;">
				<path style="fill:#650000;" d="M1903.8,3124.3v182.35c-61.2-150.05-202.55-100.2-202.55-100.2l-12.25-22.3l-6.7-53.5
					C1682.3,3130.65,1725.4,3009.45,1903.8,3124.3z"/>
			</g>
			<g>
				<g>
					<g>
						<path style="fill:#FFFFFF;" d="M2572.6,3107.1v289c0,28-22.65,50.6-50.6,50.6h-169.8c-25.95,0-48-20.05-49.25-45.95
							c-2.2-44.65,22.6-80.049,61.7-94.1l-18.55-123.25l-8.9-59.1C2337.2,3124.3,2387.65,2951.5,2572.6,3107.1z"/>
					</g>
					<g>
						<path style="fill:#650000;" d="M2521.998,3449.201h-169.8c-27.71,0-50.439-21.23-51.743-48.333
							c-2.173-44.031,21.313-80.574,61.421-95.857l-27.231-180.884l0.156-0.527c0.181-0.632,19.072-63.354,73.862-79.922
							c45.142-13.643,100.82,7.053,165.547,61.506l0.889,0.75V3396.1C2575.098,3425.38,2551.275,3449.201,2521.998,3449.201z
							 M2339.757,3124.496l27.671,183.811l-1.934,0.696c-39.131,14.06-62.139,49.167-60.049,91.624
							c1.182,24.436,21.719,43.574,46.753,43.574h169.8c26.523,0,48.101-21.577,48.101-48.101v-287.837
							c-62.954-52.725-116.763-72.847-159.951-59.81C2360.518,3063.437,2341.641,3118.598,2339.757,3124.496z"/>
					</g>
				</g>
			</g>
			<g style="opacity:0.3;">
				<g>
					<path style="fill:#650000;" d="M2572.6,3342.45v53.65c0,28-22.65,50.6-50.6,50.6h-169.8c-25.95,0-48-20.05-49.25-45.95
						c-0.65-12.8,0.95-24.85,4.5-35.85c7.8,16.75,25.15,28.15,44.75,28.15H2522C2549.95,3393.05,2572.6,3370.45,2572.6,3342.45z"/>
				</g>
			</g>
			<g>
				<path style="fill:#650000;" d="M1704.575,3268.057c13.313,1.697,25.728,7.231,36.904,14.194
					c5.574,3.545,10.93,7.395,15.615,12.192c4.609,4.91,8.855,10.225,11.719,17.183c-7.515,0.295-13.889-0.686-20.129-1.648
					c-6.165-1.072-11.887-2.671-17.605-4.094c-11.401-2.974-22.429-5.464-33.142-9.402l-0.278-0.103
					c-7.605-2.795-11.504-11.226-8.708-18.831C1691.355,3271.006,1697.942,3267.209,1704.575,3268.057z"/>
			</g>
			<g>
				<path style="fill:#650000;" d="M1833.658,3461.318h-237.886c-35.581,0-64.429-27.524-65.669-62.661
					c-1.494-42.297,13.633-79.265,42.593-104.092c31.431-26.948,76.67-37.227,124.087-28.162c7.92,1.511,13.115,9.155,11.602,17.073
					c-1.509,7.917-9.175,13.105-17.07,11.599c-38.672-7.38-74.966,0.508-99.619,21.65c-22.402,19.204-33.608,47.178-32.422,80.901
					c0.674,19.023,17.046,34.502,36.499,34.502h237.886c30.63,0,55.547-24.917,55.547-55.544v-252.285
					c0-8.062,6.533-14.595,14.595-14.595c8.061,0,14.595,6.533,14.595,14.595v252.285
					C1918.394,3423.307,1880.382,3461.318,1833.658,3461.318z"/>
			</g>
			<g>
				<path style="fill:#650000;" d="M1066.422,1834.816H817.281c-79.351,0-143.911-95.112-143.911-212.021
					s64.561-212.021,143.911-212.021h249.141c79.351,0,143.911,95.112,143.911,212.021S1145.772,1834.816,1066.422,1834.816z
					 M817.281,1439.094c-63.735,0-115.591,82.407-115.591,183.701c0,101.294,51.855,183.701,115.591,183.701h249.141
					c63.735,0,115.591-82.407,115.591-183.701c0-101.294-51.856-183.701-115.591-183.701H817.281z"/>
			</g>
			<g>
				<path style="fill:#650000;" d="M817.266,1832.802c-6.719,0-12.163-5.447-12.163-12.163c0-6.716,5.444-12.163,12.163-12.163
					c64.829,0,117.573-83.296,117.573-185.681c0-102.388-52.744-185.684-117.573-185.684c-6.719,0-12.163-5.447-12.163-12.163
					s5.444-12.163,12.163-12.163c78.242,0,141.899,94.212,141.899,210.01C959.166,1738.593,895.508,1832.802,817.266,1832.802z"/>
			</g>
			<g style="opacity:0.3;">
				<path style="fill:#650000;" d="M2572.6,3107.1v178.4c-37.5-106.45-147.6-121.993-221.679-70.069l-4.821-32.031l-8.9-59.1
					C2337.2,3124.3,2387.65,2951.5,2572.6,3107.1z"/>
			</g>
			<g>
				<ellipse style="fill:#F44906;" cx="812.199" cy="1626.304" rx="48.042" ry="88.308"/>
			</g>
			<g style="opacity:0.55;">
				<path style="fill:#FFFFFF;" d="M845.4,1562.4c-5.25-3.65-11-5.65-16.95-5.65c-26.55,0-48.05,39.55-48.05,88.3
					c0,25.15,5.7,47.85,14.85,63.9c-18.15-12.55-31.1-44.8-31.1-82.65c0-48.75,21.5-88.3,48.05-88.3
					C825.1,1538,836.75,1547.3,845.4,1562.4z"/>
			</g>
			<g>
				<path style="fill:#650000;" d="M812.198,1726.774c-33.76,0-60.205-44.131-60.205-100.469
					c0-56.338,26.445-100.471,60.205-100.471c33.76,0,60.205,44.133,60.205,100.471
					C872.403,1682.643,845.958,1726.774,812.198,1726.774z M812.198,1550.16c-16.973,0-35.879,31.272-35.879,76.145
					c0,44.873,18.906,76.142,35.879,76.142c16.973,0,35.879-31.27,35.879-76.142C848.077,1581.432,829.171,1550.16,812.198,1550.16z
					"/>
			</g>
			<g>
				<path style="fill:#650000;" d="M1075.693,1627.864l-49.663,645.984c-1.133,14.736-13.997,25.762-28.733,24.629
					c-14.736-1.133-25.764-13.997-24.631-28.733c0.017-0.227,0.051-0.574,0.073-0.801l69.043-644.199
					c1.001-9.351,9.395-16.121,18.748-15.117C1069.7,1610.61,1076.387,1618.73,1075.693,1627.864z"/>
			</g>
			<g>
				<g>
					<g>
						<path style="fill:#FFFFFF;" d="M1326.461,2421.832l-10.606,154.028c-162.882,107.031-545.617,40.915-506.696-285.385
							c8.076-44.175,29.336-74.532,54.926-92.534c54.878-38.628,129.8-20.141,137.195,41.208
							c67.868,7.492,72.343,67.235,55.267,105.426v0.049c34.055,54.342,161.277,55.851,212.36-22.866l46.316,80.516
							L1326.461,2421.832z"/>
					</g>
					<g>
						<path style="fill:#650000;" d="M1136.798,2625.373c-71.982,0-146.201-18.108-204.233-54.011
							c-95.742-59.238-140.449-159.097-125.884-281.182c9.517-52.104,35.688-80.017,55.967-94.285
							c30.454-21.433,69.58-26.621,99.707-13.22c22.998,10.237,37.554,29.443,41.148,54.221
							c25.645,3.271,44.648,14.539,55.029,32.659c13.921,24.309,9.644,54.336,0.835,74.824
							c14.693,22.261,47.276,36.223,85.464,36.528c39.546,0.273,92.715-15.417,121.982-60.51l2.222-3.43l59.971,104.28l-0.049,0.757
							l-10.693,155.266l-1.035,0.681C1268.99,2609.648,1203.863,2625.373,1136.798,2625.373z M926.192,2180.3
							c-20.649,0-42.29,6.75-60.664,19.685c-19.521,13.73-44.717,40.654-53.906,90.94c-18.33,153.704,57.08,235.044,123.574,276.184
							c110.205,68.193,279.551,71.396,378.252,7.339l10.469-152.029l-55.176-95.935c-30.762,44.214-84.072,59.849-123.95,59.421
							c-40.493-0.32-75.117-15.63-90.361-39.954l-0.381-0.61l0.22-1.787c8.267-18.494,13.208-48.32-0.078-71.514
							c-9.956-17.378-27.847-27.607-53.184-30.405l-1.973-0.217l-0.234-1.968c-2.886-23.906-16.548-42.446-38.477-52.207
							C949.835,2182.577,938.179,2180.3,926.192,2180.3z"/>
					</g>
				</g>
			</g>
			<g>
				<g>
					<path style="fill:#FFFFFF;" d="M3074.72,2632.928c-15.374,0.924-24.228,3.892-25.639,19.217
						c-6.957,73.705-114.621,74.144-126.346-8.904c-1.897-13.476-1.265-29.142,2.725-47.093
						c-21.358-0.195-43.834-5.109-66.214-12.893v-0.049c-4.232-1.41-8.465-3.016-12.698-4.67
						c21.649,49.429-7.687,68.889-42.716,84.895c62.176,24.86,68.111,85.966,4.865,116.761
						c50.986,35.272,27.682,115.156-12.99,110.291c7.59,99.441-17.271,123.232-74.581,71.37
						c-24.909,121.141-59.84,116.47-98.907,59.987c0,103.431-94.382,106.059-142.692,62.662h-0.049
						c-3.211-2.87-6.13-5.887-8.903-9.146c-21.893,58.381-88.787,70.202-117.978,20.677c-19.46,60.813-90.003,69.327-109.464,6.081
						c-34.056,70.543-91.658,81.976-138.654,25.542c-45.002,52.299-102.848,46.899-110.68-21.893
						c-43.786,52.299-110.972,59.354-161.763-10.946c-44.467,64.559-86.939,62.37-127.708,4.865
						c-30.407,69.327-100.026,47.629-104.599-10.946c-51.618,97.106-137.438,42.569-115.934-37.704
						c-60.035,79.446-131.892,18.585-48.651-47.045c-111.896-35.661-24.325-108.636-24.325-108.636
						c-95.696-55.122-36.488-134.616-36.488-134.616c-154.806-29.19-13.817-128.097-13.817-128.097
						c-87.571-45.391-19.46-113.502-19.46-113.502c-24.082-22.136-31.185-42.229-31.039-58.283
						c0.194-23.936,16.444-39.018,16.444-39.018s-24.325-257.848-40.526-334.083c-16.201-76.236,9.73-110.291,9.73-110.291
						c-29.19-55.121,19.46-82.706,19.46-82.706c-72.976-29.19-48.651-134.568,8.125-136.222
						c-79.495-51.862-93.604-187.061-9.73-230.263c-45.44-32.45-37.656-123.33,11.336-134.617
						c-56.775-27.536-61.057-115.01,8.125-142.692c-72.976-77.841,2.627-169.207,55.121-144.346
						c-10.8-60.521,43.786-108.637,103.772-71.322c9.341-46.558,83.533-88.398,124.886-31.233
						c46.024-84.895,124.108-77.5,167.845-29.19c52.981-43.737,139.87-55.948,192.17-4.865
						c28.363-69.278,96.085-58.381,144.735-12.163c53.126-59.013,112.334-46.656,175.142,8.514
						c50.84-42.959,105.669-53.564,169.061,4.865c54.148-62.711,97.058-46.802,133.789,12.163
						c53.807-53.808,91.852-50.937,113.113,12.163c53.516-31.964,85.09-16.152,94.722,17.611
						c7.687,27.049,1.265,65.678-19.314,100.366c79.738,115.156,37.947,153.055,0,193.386c48.651,19.46,59.597,81.49,6.081,105.815
						c53.516,24.325,40.38,90.004,0,104.599c55.608,46.559,50.256,85.722,8.514,120.41c76.333,44.467,44.272,84.651-8.514,124.059
						c93.604,43.932,66.505,98.42,21.893,154.466l13.379,316.229c2.627,2.238,5.108,4.475,7.444,6.665
						c33.958,31.866,42.666,62.418,36.001,82.755c-4.33,13.135-15.082,22.038-29.677,24.179c9.39,7.638,19.363,14.79,29.823,21.455
						c70.008,44.953,162.833,68.938,271.421,72.1c32.499,1.411,58.478,9.974,77.16,22.866
						C3292.48,2511.301,3257.792,2621.64,3074.72,2632.928z"/>
				</g>
				<g>
					<path style="fill:#650000;" d="M2167.76,3166.017c-21.963,0.002-43.667-11.809-63.306-34.534
						c-24.194,27.048-52.329,38.882-75.674,31.699c-19.414-5.977-32.324-24.211-36.709-51.619
						c-22.568,25.002-50.225,38.108-78.11,37.161c-30.044-1.074-58.291-18.21-81.87-49.622
						c-21.777,30.664-43.862,46.277-65.674,46.426c-0.107,0-0.21,0-0.313,0c-20.596,0-41.196-13.76-61.289-40.92
						c-16.66,34.443-42.739,43.452-62.114,40.166c-22.695-3.843-39.878-22.813-44.478-48.22
						c-26.572,45.112-59.673,52.141-82.437,43.176c-23.569-9.282-43.037-39.497-36.631-79.019
						c-23.086,26.44-46.509,32.944-61.558,29.746c-11.333-2.402-19.292-10.044-21.846-20.967
						c-4.443-19.043,8.32-42.961,34.267-64.568c-31.792-10.918-49.805-26.191-53.569-45.437
						c-5.527-28.262,21.367-55.669,30.137-63.73c-28.862-17.354-46.099-38.762-51.25-63.667
						c-6.665-32.224,8.823-60.32,14.795-69.631c-42.041-8.499-65.61-23.315-70.093-44.065c-7.603-35.208,42.227-75.273,55.791-85.43
						c-24.736-13.645-38.818-30.569-41.88-50.347c-4.604-29.731,17.036-56.177,23.564-63.372
						c-20.088-19.053-30.181-38.699-30-58.418c0.176-21.702,12.788-36.26,16.343-39.934
						c-1.812-19.028-24.941-260.024-40.371-332.625c-14.693-69.141,4.619-103.906,9.263-110.996
						c-23.574-46.123,6.016-73.723,17.197-82.026c-38.125-17.612-46.235-55.247-41.333-82.881
						c5.244-29.534,24.351-51.396,47.666-55.615c-39.824-29.128-64.458-82.109-61.787-134.15
						c2.158-42.095,21.929-76.375,54.434-94.695c-25.552-20.776-31.553-58.721-26.079-86.169
						c4.834-24.248,17.905-41.987,35.522-48.718c-25.005-14.658-40.205-42.363-39.146-72.227
						c1.108-31.27,19.541-57.483,49.517-70.759c-40.229-45.071-31.626-92.639-11.645-120.049
						c17.944-24.612,45.269-35.398,67.866-27.368c-3.726-29.341,7.612-57.329,29.585-72.217
						c21.753-14.732,49.175-14.334,75.669,0.986c6.924-25.991,32.661-49.668,61.372-55.913c25.283-5.503,48.188,3.02,64.849,24.018
						c26.284-46.299,59.038-59.409,82.139-62.183c30.581-3.66,62.666,9.063,86.274,34.138c52.661-42.18,137.09-55.349,191.035-5.73
						c11.284-25.386,28.955-41.287,51.284-46.074c28.887-6.199,63.975,6.736,94.199,34.644
						c49.497-53.474,106.87-50.603,175.317,8.779c57.388-47.593,112.666-46.091,168.823,4.585
						c24.644-27.93,47.598-40.608,69.971-38.926c22.671,1.763,43.779,18.352,64.478,50.693
						c28.818-28.203,53.506-40.137,73.428-35.474c17.051,3.994,30.698,20.105,40.596,47.903
						c26.865-15.464,50.342-19.949,68.027-12.939c13.394,5.308,22.983,16.914,27.729,33.562c8.11,28.525,0.923,67.07-18.75,100.945
						c77.236,112.285,39.17,152.564,2.349,191.509l-1.035,1.096c23.774,10.825,39.282,32.436,39.824,55.935
						c0.488,21.287-11.24,39.561-32.378,50.779c21.147,11.411,33.096,31.233,32.188,53.904
						c-0.898,22.571-14.019,42.715-33.091,51.445c25.61,22.258,38.574,44.099,38.535,64.966
						c-0.034,18.772-10.01,36.57-30.469,54.321c28.179,17.012,42.407,34.319,43.462,52.842c1.514,26.548-24.619,50.73-51.479,71.103
						c34.409,16.821,53.73,36.04,59.023,58.672c7.51,32.097-14.395,65.615-39.38,97.095l13.291,314.214
						c2.354,2.026,4.585,4.05,6.699,6.033c30.957,29.048,44.663,60.957,36.67,85.356c-4.116,12.488-13.569,21.294-26.338,24.763
						c7.993,6.267,16.533,12.302,25.449,17.983c69.111,44.377,160,68.503,270.151,71.709c31.245,1.357,58.379,9.417,78.511,23.308
						c28.926,19.9,41.172,49.895,32.759,80.239c-11.401,41.111-64.897,87.588-180.854,94.736l0,0
						c-15.117,0.911-22.07,3.574-23.301,16.953c-3.613,38.247-32.71,55.996-59.946,56.626c-29.785,0.557-64.883-19.487-71.367-65.41
						c-1.914-13.625-1.201-28.752,2.124-45.002c-19.346-0.574-40.845-4.932-63.955-12.971l-1.68-0.618
						c-1.934-0.667-3.853-1.365-5.698-2.058c17.383,45.825-10.771,65.923-41.089,80.391c28.008,12.756,45.039,33.879,45.894,57.312
						c0.854,23.569-14.541,45.244-42.397,59.939c28.301,21.978,31.548,57.578,22.227,82.192
						c-7.368,19.434-21.484,30.815-37.271,30.41c3.97,55.869-2.471,87.146-19.678,95.579c-13.223,6.482-31.572-0.776-56.045-22.173
						c-12.793,60.134-28.906,91.404-49.204,95.542c-14.453,2.949-30.508-7.773-48.94-32.737
						c-1.812,38.088-17.466,65.474-44.546,77.549c-30.913,13.787-72.49,5.574-101.426-19.944h-0.005l-0.757-0.637
						c-2.241-2-4.36-4.087-6.416-6.316c-11.934,28.213-35.415,46.965-62.09,49.29c-22.207,1.924-42.793-8.328-56.055-27.629
						c-10.835,28.186-34.321,46.716-59.619,46.548c-22.729-0.129-41.431-14.851-50.928-39.714
						c-17.568,33.638-41.357,53.811-67.427,57.014C2172.769,3165.866,2170.264,3166.017,2167.76,3166.017z M2104.512,3123.786
						l1.89,2.271c21.216,25.479,44.81,37.407,68.267,34.539c25.679-3.157,49.194-24.312,66.216-59.568l2.769-5.735l1.87,6.086
						c8.032,26.099,26.025,41.753,48.135,41.877c0.088,0,0.176,0,0.264,0c24.502,0,47.1-19.248,56.294-47.986l1.704-5.315
						l2.832,4.807c12.227,20.74,31.958,31.487,54.121,29.595c25.928-2.258,48.672-21.372,59.365-49.88l1.489-3.977l2.754,3.235
						c2.568,3.018,5.19,5.742,8.008,8.311l0.708,0.596c27.104,24.351,67.803,32.654,96.768,19.739
						c26.929-12.007,41.758-40.61,41.758-80.54v-8.01l4.556,6.587c19.028,27.507,34.761,39.568,48.213,36.816
						c18.335-3.738,33.872-35.996,46.191-95.881l0.879-4.287l3.247,2.937c24.067,21.78,42.124,29.958,53.73,24.272
						c15.234-7.468,20.845-38.96,16.68-93.601l-0.234-3.035l3.022,0.361c14.6,1.768,28.032-8.596,35-26.995
						c9.014-23.792,5.43-58.584-23.73-78.757l-3.516-2.432l3.843-1.873c28.306-13.784,44.072-34.602,43.252-57.119
						c-0.83-22.81-18.755-43.398-47.949-55.071l-5.425-2.168l5.313-2.427c33.906-15.493,62.588-33.391,41.465-81.619l-2.422-5.527
						l5.62,2.195c3.755,1.467,8.188,3.164,12.583,4.629l1.709,0.637c23.174,7.905,44.609,12,63.735,12.173l3.086,0.027l-0.669,3.015
						c-3.735,16.799-4.639,32.344-2.69,46.204c5.986,42.393,36.616,61.125,64.834,61.125c0.493,0,0.981-0.005,1.47-0.017
						c25.024-0.576,51.758-16.907,55.078-52.09c1.694-18.384,14.199-20.649,27.979-21.479c113.33-6.987,165.4-51.631,176.338-91.082
						c7.817-28.193-3.687-56.15-30.776-74.785c-19.36-13.359-45.586-21.116-75.854-22.429
						c-111.035-3.232-202.783-27.625-272.666-72.493c-10.63-6.775-20.742-14.05-30.044-21.621l-4.409-3.586l5.625-0.825
						c13.525-1.985,23.608-10.181,27.661-22.488c7.373-22.502-5.835-52.466-35.337-80.149c-2.31-2.163-4.756-4.375-7.354-6.584
						l-0.83-0.708l-0.049-1.091l-13.418-317.163l0.581-0.73c23.276-29.238,46.113-63.218,39.009-93.572
						c-5.112-21.851-24.741-40.52-60.01-57.073l-3.774-1.772l3.345-2.495c25.332-18.909,54.224-43.875,52.773-69.29
						c-0.986-17.371-15.391-33.923-44.023-50.603l-3.086-1.799l2.749-2.285c21.064-17.505,31.323-34.768,31.357-52.771
						c0.034-20.149-13.384-41.614-39.883-63.799l-3.33-2.79l4.087-1.477c19.268-6.965,32.808-26.47,33.687-48.535
						c0.898-22.495-11.445-41.245-33.872-51.438l-5.005-2.275l5.005-2.276c22.124-10.056,34.536-27.688,34.058-48.376
						c-0.522-22.581-16.235-43.323-40.029-52.842l-3.408-1.362l6.016-6.379c37.231-39.382,72.402-76.582-3.735-186.543l-0.913-1.318
						l0.82-1.379c19.609-33.064,26.914-70.771,19.058-98.408c-4.307-15.098-12.871-25.569-24.771-30.283
						c-16.743-6.641-39.668-1.755-66.265,14.136l-2.661,1.589l-0.991-2.937c-9.375-27.83-22.163-43.821-38.003-47.532
						c-18.618-4.382-42.5,7.864-70.972,36.338l-2.227,2.227l-1.665-2.673c-20.332-32.637-40.703-49.316-62.285-50.994
						c-20.967-1.602-43.652,11.54-67.485,39.143l-1.689,1.956l-1.899-1.75c-55.938-51.56-108.608-53.079-165.757-4.795l-1.641,1.392
						l-1.621-1.423c-67.437-59.236-123.589-62.092-171.631-8.718l-1.719,1.909l-1.865-1.77
						c-29.443-27.971-63.652-41.104-91.572-35.122c-21.602,4.634-38.589,20.686-49.126,46.421l-1.406,3.435l-2.656-2.595
						c-51.709-50.508-138.281-36.724-188.828,5.005l-1.841,1.519l-1.606-1.77c-22.661-25.022-53.892-37.827-83.579-34.273
						c-22.48,2.7-54.648,15.818-80.215,62.979l-1.895,3.494l-2.329-3.22c-15.586-21.545-37.627-30.488-62.085-25.164
						c-28.14,6.118-53.213,29.946-58.325,55.422l-0.708,3.538l-3.062-1.904c-25.669-15.967-52.344-17.007-73.198-2.876
						c-21.45,14.531-31.963,42.649-26.792,71.633l0.854,4.776l-4.385-2.078c-21.167-10.02-48.267-0.129-65.893,24.058
						c-19.253,26.404-27.222,72.71,13.667,116.323l2.5,2.671l-3.399,1.36c-30.034,12.017-48.608,37.322-49.688,67.688
						c-1.059,29.976,15.317,57.622,41.724,70.432l6.382,3.093l-6.909,1.592c-18.618,4.29-32.695,21.719-37.666,46.626
						c-5.386,27.017,0.835,64.675,27.227,83.521l3.33,2.38l-3.643,1.875c-32.925,16.963-53.037,50.627-55.181,92.368
						c-2.7,52.72,23.472,106.401,65.132,133.579l6.68,4.36l-7.974,0.234c-23.979,0.698-44.448,22.168-49.78,52.209
						c-4.756,26.785,3.525,63.596,42.51,79.192l4.814,1.926l-4.507,2.568c-1.899,1.081-46.162,27.099-18.486,79.363l0.747,1.404
						l-0.962,1.274c-0.249,0.335-25.005,34.258-9.277,108.262c16.045,75.503,40.327,331.79,40.571,334.37l0.112,1.223l-0.898,0.842
						c-0.156,0.144-15.464,14.695-15.65,37.205c-0.171,18.845,10,37.827,30.229,56.423l1.919,1.763l-1.841,1.846
						c-0.288,0.288-28.843,29.329-23.931,60.974c2.959,19.031,17.349,35.361,42.778,48.542l3.657,1.897l-3.374,2.368
						c-0.649,0.457-64.937,46.064-57.026,82.659c4.15,19.202,27.656,32.976,69.868,40.935l3.926,0.74l-2.383,3.208
						c-0.239,0.32-23.672,32.405-16.094,68.899c5.039,24.275,22.476,45.154,51.826,62.061l3.105,1.79l-2.754,2.295
						c-0.371,0.31-36.943,31.235-31.06,61.272c3.56,18.176,21.909,32.666,54.541,43.064l4.487,1.431l-3.696,2.915
						c-26.782,21.116-40.264,44.443-36.069,62.407c2.09,8.955,8.652,15.227,18.008,17.209c14.971,3.191,39.429-4.629,63.164-36.042
						l7.729-10.225l-3.316,12.378c-11.182,41.733,7.837,74.119,31.406,83.401c21.821,8.589,54.302,0.647,79.907-47.517l4.033-7.583
						l0.664,8.562c2.1,26.858,18.701,47.476,41.313,51.306c23.56,3.999,45.449-11.396,58.506-41.167l1.777-4.045l2.554,3.604
						c19.985,28.198,40.137,42.612,60.01,42.292c20.757-0.142,42.153-15.999,63.594-47.131l2.012-2.917l2.075,2.871
						c23.052,31.909,50.742,49.329,80.073,50.376c27.92,0.994,55.552-13.054,77.744-39.568l3.745-4.47l0.659,5.791
						c3.228,28.381,15.293,47.175,33.965,52.925c21.704,6.672,49.409-5.732,72.339-32.38L2104.512,3123.786z"/>
				</g>
			</g>
			<g>
				<path style="fill:#650000;" d="M2168.009,3178.097c-22.002,0-44.014-10.098-63.691-29.153
					c-25.376,23.875-54.121,33.474-79.097,25.798c-18.071-5.562-31.787-19.758-39.575-40.264
					c-21.782,18.022-46.807,27.197-72.119,26.333c-21.304-0.762-51.577-9.084-81.099-42.188
					c-21.362,26.05-43.047,38.843-65.933,38.999c-0.132,0-0.264,0-0.396,0c-20.537,0.002-40.542-10.713-59.673-31.899
					c-19.365,27.339-45.474,34.399-65.747,30.977c-19.863-3.364-36.255-15.945-46.016-33.938
					c-27.793,33.403-59.873,37.446-83.311,28.22c-22.222-8.75-40.957-31.331-44.892-62.322c-17.09,12.129-34.995,17.1-51.372,13.628
					c-15.874-3.364-27.505-14.597-31.113-30.046c-4.609-19.739,4.033-42.039,23.979-63.22
					c-25.01-11.921-39.565-27.747-43.374-47.214c-5.049-25.828,10.566-49.668,23.13-64.028
					c-24.326-17.649-39.175-38.862-44.219-63.24c-5.273-25.486,1.606-48.628,8.545-63.884
					c-37.871-10.151-58.809-26.506-63.818-49.712c-7.295-33.774,25.303-68.259,46.851-86.831
					c-19.014-13.884-30.112-30.52-33.071-49.648c-4.155-26.843,9.443-50.962,19.346-64.431
					c-17.173-18.826-25.889-38.481-25.933-58.572c-0.049-20.94,9.639-36.587,15.918-44.524
					c-3.838-39.875-25.225-258.179-39.673-326.155c-13.052-61.414-0.225-98.542,7.51-113.931
					c-15.469-35.247-4.512-62.593,10.342-79.531c-31.186-22.483-37.749-59.187-32.798-87.07
					c4.531-25.527,18.228-46.189,36.445-57.332c-33.462-32.786-53.237-82.275-50.742-130.94
					c2.075-40.478,19.116-74.487,47.505-96.035c-19.98-24.463-24.399-59.163-18.931-86.575
					c4.023-20.181,13.154-36.597,25.806-47.368c-19.458-17.92-30.635-43.982-29.653-71.641
					c1.099-30.981,16.836-57.607,43.022-74.119c-33.852-46.816-23.74-94.719-2.842-123.386c17.012-23.333,41.607-35.967,64.917-34.9
					c1.05-27.722,13.921-52.932,35.527-67.571c21.88-14.822,49.297-16.67,75.84-5.72c11.924-24.636,37.061-44.846,65.41-51.013
					c24.219-5.271,47.197,0.64,65.405,16.318c21.856-31.626,50.698-50.828,82.715-54.673c31.143-3.733,63.452,7.468,88.75,30.251
					c53.062-37.378,130.615-48.594,186.138-8.567c15.84-26.028,36.68-35.752,52.607-39.167c29.893-6.404,65.005,4.705,96.089,29.912
					c50.444-47.847,109.609-44.604,176.201,9.724c56.24-42.498,112.539-41.343,167.642,3.457
					c24.414-24.873,48.022-36.128,71.855-34.243c23.56,1.831,45.127,16.375,65.596,44.336c27.944-24.512,52.319-33.94,74.131-28.836
					c18.262,4.28,33.027,18.633,44.033,42.742c46.519-22.212,72.632-7.131,84.546,4.753c27.07,27.002,26.875,82.998,0.439,133.118
					c70.654,106.106,40.801,152.722,6.372,190.386c19.814,14.014,32.148,35.459,32.681,58.511
					c0.459,19.792-7.979,37.815-23.301,51.14c15.576,13.887,23.96,33.03,23.11,54.304c-0.84,20.938-10.527,40.178-25.576,52.739
					c20.884,21.165,31.064,41.965,31.025,63.211c-0.034,18.152-7.861,35.75-23.315,52.493
					c23.271,16.748,35.186,34.509,36.294,53.962c1.523,26.758-18.11,49.946-41.709,69.846c27.661,16.541,43.745,35.596,48.95,57.859
					c8.374,35.794-13.208,70.964-38.887,103.816l12.886,304.595c35.879,32.473,52.139,69.097,43.594,98.857
					c-2.856,9.954-8.35,18.337-15.806,24.565c67.515,46.533,161.377,72.715,273.33,75.986
					c85.767,3.689,125.171,52.478,125.581,96.252c0.527,56.804-59.492,117.854-194.771,126.194c-0.01,0-0.015,0-0.02,0
					c-8.945,0.54-10.806,1.729-11.089,1.963l0,0c0.015,0-0.615,0.962-0.908,4.06c-2.729,28.972-18.877,51.548-44.302,61.941
					c-26.758,10.933-58.579,5.728-81.089-13.274c-14.648-12.361-36.567-40.117-29.941-92.473
					c-12.729-1.382-26.138-4.146-40.142-8.271c3.555,31.443-14.546,50.308-33.35,62.295c20.376,14.714,32.368,34.656,33.159,56.467
					c0.874,23.97-11.606,46.011-34.814,62.493c21.689,25.452,23.228,59.663,13.867,84.365c-7.183,18.965-20.386,32.039-35.83,36.519
					c2.744,55.747-5.771,85.593-27.104,96.047c-18.081,8.86-38.647-0.903-53.892-11.589c-13.589,54.351-30.654,81.135-54.263,85.947
					c-16.211,3.315-30.781-4.836-43.071-16.46c-9.927,40.381-36.167,56.387-53.203,62.627
					c-33.086,12.117-74.956,3.247-104.81-20.491c-14.951,23.975-38.345,39.451-64.463,41.726
					c-20.298,1.763-39.419-4.871-54.351-18.264c-14.487,22.961-37.441,37.229-62.085,37.229c-0.117,0-0.239,0-0.356,0
					c-20.576-0.117-38.799-10.193-51.396-27.498c-18.081,26.052-40.713,41.672-65.415,44.709
					C2173.844,3177.919,2170.924,3178.097,2168.009,3178.097z M2104.483,3113.061c0.039,0,0.078,0,0.117,0
					c4.292,0.034,8.354,1.958,11.099,5.256c18.452,22.161,38.389,32.644,57.49,30.273c21.46-2.639,41.631-21.396,56.802-52.822
					c2.607-5.405,8.213-8.704,14.248-8.208c5.986,0.454,11.084,4.524,12.847,10.261c6.489,21.094,19.844,33.245,36.641,33.337
					c0.059,0.002,0.122,0.002,0.176,0.002c16.025,0,36.04-12.212,44.795-39.578c1.753-5.479,6.563-9.417,12.28-10.056
					c5.664-0.645,11.274,2.136,14.194,7.095c9.761,16.56,25.249,25.212,42.651,23.684c21.24-1.851,40.049-17.971,49.087-42.075
					c1.821-4.849,6.069-8.372,11.172-9.255c5.137-0.884,10.298,1.001,13.638,4.954c21.367,25.256,59.976,37.031,87.871,26.812
					c24.883-9.114,38.037-33.63,38.037-70.901c0-6.387,4.15-12.029,10.244-13.933c6.094-1.887,12.725,0.378,16.353,5.63
					c22.021,31.838,33.018,32.427,35.85,31.846c3.306-0.674,20.625-8.013,36.758-86.467c1.055-5.132,4.78-9.302,9.756-10.933
					c4.985-1.628,10.444-0.464,14.336,3.049c29.365,26.575,39.253,22.886,40.288,22.383c1.597-0.784,15.444-9.729,9.946-81.821
					c-0.332-4.355,1.299-8.63,4.453-11.65c3.154-3.022,7.476-4.475,11.831-3.953c10.479,1.294,18.413-9.126,22.256-19.27
					c7.397-19.529,4.512-48.049-19.307-64.526c-4.263-2.949-6.641-7.939-6.245-13.11c0.391-5.171,3.501-9.744,8.159-12.014
					c23.813-11.594,37.104-28.289,36.465-45.806c-0.649-17.883-15.737-34.436-40.356-44.28c-5.42-2.168-9.028-7.361-9.17-13.201
					s3.213-11.199,8.525-13.625c37.002-16.907,50.894-30.415,35.41-65.764c-2.373-5.417-1.24-11.731,2.866-15.989
					c4.102-4.25,10.371-5.61,15.874-3.44c27.3,10.801,52.09,16.382,73.677,16.587c4.404,0.042,8.555,2.07,11.294,5.52
					c2.739,3.447,3.774,7.949,2.817,12.249c-7.974,35.784-1.816,64.395,17.334,80.557c14.297,12.065,34.395,15.427,51.216,8.56
					c15.249-6.233,24.585-19.604,26.284-37.654c2.842-30.21,28.359-31.768,39.282-32.424l0,0
					c115.552-7.122,167.764-55.164,167.378-96.787c-0.347-37.202-40.415-64.9-97.441-67.351
					c-129.224-3.777-236.426-37.253-309.81-96.804c-4.497-3.645-6.411-9.602-4.883-15.186c1.528-5.581,6.206-9.734,11.934-10.583
					c9.341-1.389,15.811-6.787,18.228-15.203c4.38-15.259-3.652-42.41-39.326-72.859c-3.086-2.632-4.937-6.431-5.107-10.483
					l-13.379-316.23c-0.151-3.511,0.972-6.958,3.159-9.707c21.475-26.973,42.622-57.959,36.694-83.286
					c-4.155-17.761-22.109-34.206-53.369-48.877c-4.644-2.18-7.803-6.636-8.32-11.738c-0.518-5.103,1.68-10.103,5.791-13.172
					c21.118-15.764,49.067-39.026,47.935-58.911c-0.908-15.972-21.187-31.023-38.037-40.837c-4.116-2.4-6.802-6.655-7.197-11.404
					c-0.396-4.749,1.553-9.39,5.22-12.434c17.881-14.861,26.963-29.495,26.992-43.491c0.029-16.392-11.934-34.729-35.552-54.502
					c-4.004-3.352-5.913-8.591-5-13.733c0.908-5.144,4.497-9.409,9.409-11.184c14.463-5.227,25.039-20.708,25.713-37.642
					c0.405-10.186-2.534-28.918-26.792-39.946c-5.21-2.368-8.555-7.563-8.555-13.286c0-5.723,3.345-10.918,8.555-13.286
					c17.759-8.074,27.334-21.245,26.973-37.087c-0.41-17.729-13.14-34.172-32.432-41.892c-4.482-1.792-7.788-5.683-8.833-10.398
					c-1.04-4.712,0.317-9.636,3.623-13.152l3.521-3.73c35.234-37.266,65.664-69.453-4.888-171.348
					c-3.252-4.692-3.467-10.85-0.552-15.759c26.338-44.363,24.99-89.429,8.633-105.74c-16.626-16.589-47.246-2.271-64.009,7.744
					c-3.789,2.271-8.403,2.693-12.539,1.162c-4.141-1.528-7.368-4.849-8.779-9.031c-5.464-16.223-14.985-36.265-29.297-39.619
					c-14.053-3.291-34.702,8.152-59.658,33.115c-3.145,3.149-7.583,4.688-11.982,4.18c-4.424-0.505-8.374-3.003-10.728-6.782
					c-17.905-28.74-35.723-43.992-52.959-45.33c-16.821-1.296-36.206,10.452-57.397,34.988c-2.583,2.991-6.27,4.807-10.215,5.034
					c-3.945,0.21-7.813-1.162-10.723-3.84c-51.265-47.258-97.451-48.638-149.751-4.451c-5.518,4.663-13.618,4.59-19.053-0.183
					c-81.802-71.853-127.441-39.949-154.658-9.712c-2.637,2.927-6.343,4.665-10.278,4.819c-3.911,0.154-7.764-1.289-10.625-4.004
					c-26.147-24.844-57.09-37.117-80.703-32.065c-17.773,3.811-31.392,16.992-40.474,39.177c-1.841,4.492-5.791,7.776-10.547,8.762
					c-4.736,0.979-9.682-0.459-13.159-3.85c-46.909-45.825-126.157-32.722-172.676,5.676c-6.016,4.966-14.873,4.329-20.112-1.46
					c-20.029-22.122-47.383-33.494-73.174-30.381c-28.174,3.384-52.734,23-71.021,56.733c-2.392,4.412-6.88,7.285-11.89,7.61
					c-4.893,0.332-9.824-1.941-12.769-6.011c-16.142-22.317-35.957-23.438-49.712-20.435c-23.345,5.076-44.883,25.273-49.038,45.984
					c-0.942,4.692-4.126,8.625-8.521,10.525c-4.385,1.902-9.429,1.528-13.501-1.003c-21.416-13.328-43.291-14.47-60.025-3.13
					c-17.495,11.853-26.001,35.205-21.665,59.495c0.957,5.378-1.167,10.842-5.508,14.16c-4.341,3.32-10.171,3.936-15.107,1.594
					c-15.845-7.498-36.787,0.828-50.947,20.251c-17.319,23.757-23.071,62.744,12.72,100.923c3.296,3.518,4.644,8.44,3.599,13.147
					c-1.045,4.707-4.351,8.596-8.828,10.386c-25.83,10.337-41.172,31.072-42.09,56.887c-0.894,25.195,12.813,48.401,34.912,59.121
					c5.571,2.7,8.833,8.621,8.135,14.771c-0.693,6.152-5.195,11.194-11.226,12.585c-13.848,3.188-24.507,17.097-28.516,37.205
					c-4.653,23.323,0.371,55.586,22.388,71.311c4.141,2.956,6.445,7.856,6.074,12.932c-0.366,5.073-3.35,9.59-7.871,11.921
					c-39.702,20.449-47.52,60.298-48.643,82.231c-2.49,48.567,21.484,97.93,59.658,122.832c5.347,3.486,7.803,10.039,6.074,16.179
					c-1.729,6.142-7.246,10.449-13.623,10.635c-21.221,0.618-34.692,22.327-38.223,42.234c-4.155,23.386,2.886,52.964,35.093,65.85
					c5.21,2.083,8.765,6.968,9.141,12.563c0.381,5.596-2.481,10.916-7.363,13.682c-5.938,3.489-34.941,23.171-13.755,63.179
					c2.661,5.029,2.158,11.147-1.289,15.674c-0.093,0.137-21.416,30.896-7.065,98.413c16.191,76.184,39.785,325.186,40.781,335.75
					c0.425,4.519-1.274,8.979-4.6,12.068c-0.024,0.024-11.997,11.772-11.792,29.236c0.181,15.029,9.038,30.715,26.333,46.624
					c2.93,2.69,4.629,6.462,4.712,10.437c0.083,3.977-1.455,7.813-4.267,10.625c-0.215,0.217-24.541,25.198-20.518,50.659
					c2.368,14.971,14.604,28.284,36.377,39.568c4.526,2.346,7.505,6.892,7.842,11.982c0.342,5.093-2.002,9.993-6.177,12.922
					c-19.067,13.418-56.914,48.245-52.149,70.212c2.944,13.599,24.356,24.819,60.283,31.592c4.946,0.933,9.063,4.348,10.894,9.036
					c1.826,4.69,1.113,9.99-1.895,14.026c-0.171,0.234-20.454,28.391-13.911,59.407c4.365,20.669,19.834,38.784,45.981,53.845
					c4.136,2.383,6.846,6.636,7.256,11.392s-1.528,9.412-5.195,12.468c-8.75,7.354-30.693,30.657-26.929,49.688
					c3.325,16.814,27.036,27.678,46.343,33.831c5.142,1.641,8.965,5.986,9.927,11.299c0.967,5.315-1.084,10.725-5.322,14.07
					c-27.114,21.375-34.067,40.378-31.782,50.156c1.021,4.382,3.965,7.117,8.74,8.13c10.806,2.29,30.664-4.578,51.006-31.504
					c4.214-5.574,11.773-7.383,18.052-4.316c6.274,3.066,9.497,10.146,7.69,16.892c-9.365,34.961,5.459,61.653,24.155,69.019
					c21.704,8.538,46.509-7.539,64.8-41.941c3.047-5.732,9.507-8.762,15.864-7.439c6.353,1.323,11.069,6.685,11.572,13.154
					c1.914,24.519,17.085,37.917,31.27,40.32c17.813,3.008,34.731-9.741,45.415-34.099c2.109-4.817,6.65-8.125,11.885-8.657
					c5.186-0.537,10.347,1.785,13.384,6.079c17.5,24.68,34.273,37.192,49.868,37.192c0.063,0,0.127,0,0.195,0
					c16.572-0.112,34.648-14.209,53.716-41.897c2.691-3.906,7.114-6.262,11.856-6.316c4.946-0.073,9.224,2.202,11.997,6.047
					c20.786,28.772,45.234,44.463,70.703,45.371c24.043,0.815,48.291-11.66,68.037-35.247c3.745-4.475,9.8-6.292,15.391-4.607
					c5.591,1.677,9.644,6.526,10.303,12.327c2.651,23.308,11.714,38.484,25.508,42.732c17.017,5.247,39.863-5.759,59.609-28.708
					C2096.192,3114.911,2100.235,3113.061,2104.483,3113.061z M3074.722,2632.927h0.049H3074.722z"/>
			</g>
			<g>
				<path style="fill:#650000;" d="M2835.293,2355.811c-4.773-2.18-8.743-5.439-12.356-9.053c-3.64-3.591-6.675-7.825-9.57-12.109
					c-5.718-8.638-10.583-17.92-13.337-28.433c-0.276-1.055,0.354-2.134,1.409-2.41c0.459-0.12,0.935-0.063,1.335,0.122
					c9.758,4.492,18.157,9.587,26.382,14.636c4.075,2.561,8.181,4.998,11.838,7.898c3.684,2.881,7.173,5.94,10,9.893l0.154,0.217
					c4.146,5.796,2.808,13.853-2.988,17.998C2844.272,2357.351,2839.353,2357.654,2835.293,2355.811z"/>
			</g>
			<g>
				<path style="fill:#650000;" d="M2667.454,2452.454c18.032,6.887,32.363,17.925,46.785,28.867
					c7.307,5.344,14.651,10.637,22.122,15.723c7.334,5.278,14.866,10.251,22.375,15.227c15.01,9.993,30.396,19.226,45.847,28.22
					c15.532,8.862,31.377,16.824,47.351,24.48l0.405,0.195c7.273,3.486,10.342,12.207,6.858,19.48
					c-3.247,6.772-11.104,9.875-18.032,7.456c-18.098-6.394-35.576-14.28-52.256-23.337c-16.643-9.106-32.783-19.021-48.215-29.81
					c-7.688-5.437-15.374-10.872-22.825-16.587c-7.461-5.715-14.749-11.631-21.992-17.588
					c-14.57-11.807-28.638-24.299-37.837-42.246c-1.846-3.601-0.422-8.018,3.179-9.863c1.917-0.981,4.063-1.038,5.93-0.334
					L2667.454,2452.454z"/>
			</g>
			<g style="opacity:0.6;">
				<g>
					<path style="fill:#650000;" d="M1448.103,1190.955c-0.186-14.607,3.198-30.288,13-43.23
						c9.385-13.057,26.404-22.068,43.931-21.436c17.563,0.286,33.889,8.623,46.104,19.741c6.194,5.574,11.487,11.912,16.191,18.54
						c4.636,6.675,8.389,13.782,11.826,20.974l-25.989,1.899c3.025-12.659,9.807-25.571,20.613-34.883
						c10.798-9.241,24.573-14.387,38.13-15.205c13.577-0.781,27.273,2,39.333,9.106c6.011,3.54,11.624,8.171,16.204,13.962
						c4.541,5.796,7.922,12.803,9.48,20.149l-25.938-1.201c5.662-15.461,15.742-28.445,28.02-38.081
						c12.249-9.641,27.046-16.265,42.815-17.661c7.849-0.732,15.916,0.056,23.464,2.402c7.556,2.363,14.382,6.587,19.944,11.711
						c11.284,10.388,16.78,24.351,19.373,37.805c-3.401-6.055-7.158-11.741-11.37-16.833c-4.236-5.088-9.258-9.246-14.492-12.454
						c-10.632-6.431-22.878-7.356-34.128-4.546c-11.318,2.842-21.775,9.241-30.193,17.41c-8.384,8.228-14.751,18.301-17.834,28.816
						c-2.073,7.065-9.478,11.113-16.543,9.043c-4.478-1.313-7.744-4.771-9.006-8.926l-0.391-1.318
						c-1.88-6.355-6.685-11.755-13.511-15.481c-6.814-3.623-15.247-5.486-23.289-4.832c-8.057,0.571-15.647,3.315-21.426,8.159
						c-5.957,4.683-9.993,11.689-12.615,19.878l-0.315,0.989c-2.3,7.18-9.985,11.138-17.166,8.838
						c-4.009-1.284-7.039-4.307-8.508-7.927c-4.895-12.224-11.233-23.748-19.695-32.961c-8.328-9.27-18.909-16.123-30.574-18.159
						c-11.572-2.046-24.272,1.289-34.194,10.044c-4.905,4.355-9.243,9.744-12.766,15.825
						C1453.12,1177.219,1450.313,1183.914,1448.103,1190.955z"/>
				</g>
				<g>
					<path style="fill:#650000;" d="M1949.204,1182.036c-2.803-12.754,2.996-26.831,12.739-36.467
						c9.788-9.751,23.337-15.801,37.642-16.565c14.18-0.911,29.768,4.229,39.834,15.142c10.178,10.84,13.242,25.703,9.519,37.891
						c-8.303-9.934-15.95-16.633-23.813-19.932c-7.749-3.379-15.586-4.314-24.006-3.96c-8.389,0.442-17.112,2.349-25.725,5.928
						C1966.721,1167.703,1958.213,1172.854,1949.204,1182.036z"/>
				</g>
				<g>
					<path style="fill:#650000;" d="M2134.888,1348.328c1.311-15.813,9.905-31.66,24.709-41.831
						c7.354-5.051,16.252-8.518,25.835-9.517c9.585-0.903,19.824,0.925,28.892,5.664c4.407,2.556,8.633,5.562,12.104,9.285
						c3.542,3.662,6.335,7.893,8.552,12.266c4.358,8.835,5.842,18.296,5.371,27.029c-1.147,17.551-8.579,32.554-19.514,44.065
						c-0.3-15.928-0.308-30.273-3.374-42.358c-1.567-5.967-3.728-11.208-6.67-15.261c-2.9-4.058-6.282-7.146-10.288-9.321
						c-4.026-2.141-8.711-3.411-13.882-3.772c-5.188-0.244-10.781,0.51-16.528,2.244
						C2158.481,1330.261,2146.995,1337.966,2134.888,1348.328z"/>
				</g>
				<g>
					<path style="fill:#650000;" d="M2359.897,1178.591c3.582-10.73,8.699-20.962,16.243-30.254
						c3.896-4.524,8.203-9.067,13.857-12.502c5.356-3.818,12.224-6.006,19.358-7.2c3.542-0.073,7.329-0.374,10.84,0.203
						c3.447,0.684,7.256,1.074,10.322,2.522c6.658,2.278,12.383,5.718,17.585,9.495c2.478,1.958,4.998,3.911,7.432,5.94l6.436,6.519
						c4.399,4.312,7.671,9.121,11.475,13.738l-25.469,3.599c4.683-13.145,12.876-25.864,24.526-34.998
						c11.597-9.143,26.245-14.182,40.422-14.238c14.211-0.232,27.827,4.241,38.821,11.597c10.999,7.378,19.539,17.668,24.038,29.16
						c-9.797-7.51-19.993-12.903-30.442-15.808c-10.396-2.896-20.896-3.533-30.41-1.555c-9.507,1.98-17.893,6.228-24.475,12.397
						c-6.672,6.099-11.56,14.131-15.117,23.245c-2.964,7.593-11.523,11.345-19.114,8.381c-2.581-1.008-4.717-2.661-6.296-4.702
						l-0.059-0.081c-6.045-7.859-11.978-16.096-18.75-21.97c-6.755-5.986-13.567-10.256-20.906-11.125
						c-7.332-0.769-16.235,2.19-24.846,7.627C2376.68,1163.926,2368.44,1171.208,2359.897,1178.591z"/>
				</g>
				<g>
					<path style="fill:#650000;" d="M2490.847,1293.123c11.56-3.066,25.349-2.463,37.173,4.961
						c11.868,7.188,20.161,21.042,21.77,35.313c1.687,14.297-1.685,28.464-7.598,40.63c-6.023,12.188-14.38,22.629-23.618,31.831
						l-3.091-23.347c13.574,7.354,26.733,16.982,36.523,30.439c9.883,13.198,15.662,30.75,13.799,47.82l-0.273,3.174
						c-0.193,1.042-0.474,2.073-0.713,3.105l-1.555,6.138c-1.24,3.999-3.262,7.698-4.905,11.436
						c-2.285,3.406-4.443,6.873-6.99,9.932c-1.353,1.475-2.727,2.913-4.114,4.316c-1.389,1.404-2.693,2.864-4.312,3.977
						c-12.053,9.917-26.511,15.254-40.745,16.501c12.08-7.734,22.51-16.572,29.644-26.938c1.956-2.439,3.069-5.415,4.707-7.91
						c1.353-2.686,2.163-5.574,3.337-8.198c0.508-2.869,1.45-5.562,1.697-8.347l0.3-4.141c0.049-0.684,0.146-1.357,0.166-2.039
						l-0.222-2.048c-0.632-10.847-5.166-20.908-12.327-29.59c-7.236-8.665-16.902-15.901-27.61-22.068l-0.293-0.168
						c-6.98-4.021-9.38-12.939-5.359-19.919c0.698-1.213,1.599-2.336,2.559-3.262c7.551-7.222,14.504-14.868,19.824-23.333
						c5.256-8.45,8.704-17.659,9.49-26.934c0.535-9.204-1.902-18.43-8.438-26.006c-0.708-1.067-1.66-1.877-2.649-2.676l-2.913-2.595
						c-2.136-1.492-4.475-2.839-6.838-4.36l-7.859-3.259C2496.648,1294.761,2493.796,1294.038,2490.847,1293.123z"/>
				</g>
				<g>
					<path style="fill:#650000;" d="M2497.334,1613.406c11.887-4.539,25.84-3.616,38.235,3.298c3.105,1.665,5.889,4.104,8.74,6.406
						c2.561,2.681,5.095,5.559,7.161,8.809c1.824,3.445,3.884,6.836,4.766,10.796c0.542,1.934,0.962,3.906,1.394,5.867
						c0.188,1.995,0.247,4.021,0.317,6.042c0.271,4.087-0.771,7.954-1.57,11.848c-0.371,1.982-1.255,3.694-2.021,5.464
						c-0.798,1.753-1.565,3.518-2.468,5.198c-2.024,3.135-4.292,6.023-6.626,8.789c-2.549,2.439-5.273,4.634-7.964,6.743
						c-11.34,7.554-24.126,10.381-36.719,9.121c8.14-10.012,15.64-17.732,20.835-25.691c5.305-7.896,7.432-15.181,7.354-21.418
						c-0.046-6.204-1.882-13.091-7.478-20.103C2515.906,1627.463,2507.756,1620.85,2497.334,1613.406z"/>
				</g>
				<g>
					<path style="fill:#650000;" d="M2554.946,2523.779c10.181,3.545,19.392,10.491,26.357,19.719
						c3.381,4.7,6.211,10.076,7.881,16.167c1.67,6.067,1.724,12.935,0.103,19.468c-1.665,6.531-4.958,12.583-9.075,17.522
						c-4.131,4.954-8.86,9.055-13.828,12.534c-9.98,6.816-20.669,11.448-31.37,15.046l-1.216-25.649
						c15.093,2.446,31.013,8.774,42.764,21.44c5.833,6.226,10.586,13.809,13.325,22.161c2.7,8.357,3.501,17.283,2.534,25.82
						c-2.034,17.217-10.84,32.053-21.611,43.069c-5.427,5.552-11.343,10.349-17.52,14.541c-6.216,4.15-12.725,7.529-19.28,10.645
						l-4.402-25.278c7.646,1.091,15.361,2.986,22.939,6.064c7.563,3.059,14.98,7.627,21.152,13.979
						c6.221,6.301,10.542,14.768,12.297,23.354c1.719,8.643,0.798,17.214-1.382,24.868c-4.546,15.417-14.087,27.463-24.702,37.124
						c-10.696,9.695-22.986,16.96-35.823,22.214c5.31-4.492,10.359-9.138,15.137-13.931c4.734-4.849,8.984-10.051,12.925-15.303
						c3.894-5.293,7.244-10.889,9.768-16.66c2.639-5.698,4.446-11.616,5.176-17.332c0.74-5.715,0.276-11.208-1.279-15.92
						c-1.721-4.668-4.443-8.572-8.21-11.707c-7.607-6.24-18.992-9.307-30.92-10.198c-7.275-0.544-12.734-6.882-12.19-14.16
						c0.344-4.631,3.04-8.525,6.829-10.605l0.957-0.513c10.601-5.71,20.264-12.617,27.717-20.764
						c7.38-8.142,12.5-17.563,13.464-26.897c1.221-9.309-1.621-18.252-7.832-25.4c-6.182-7.173-15.818-12.231-26.65-14.678
						l-1.147-0.259c-7.017-1.584-11.421-8.555-9.836-15.571c1.138-5.034,5.061-8.723,9.768-9.819
						c9.504-2.2,18.638-5.159,26.746-9.141c7.976-4.07,14.822-9.268,18.127-16.172c3.525-6.763,3.323-16.047-0.22-25.046
						C2568.86,2539.541,2562.942,2530.864,2554.946,2523.779z"/>
				</g>
				<g>
					<path style="fill:#650000;" d="M1831.76,2748.992c-6.299,14.014-11.536,26.409-12.957,38.181
						c-1.665,11.685,0.415,21.814,5.203,29.919c4.905,8.044,12.871,14.517,23.875,18.528c11.028,4.121,24.387,5.168,39.756,5.808
						c-10.964,10.654-26.375,17.354-43.472,16.843c-8.496-0.251-17.295-2.568-25.291-6.997
						c-7.976-4.441-15.054-11.082-19.897-19.177c-4.773-8.127-7.378-17.444-7.537-26.555c-0.212-9.126,1.965-17.92,5.64-25.527
						C1804.48,2764.685,1817.363,2754.092,1831.76,2748.992z"/>
				</g>
				<g>
					<path style="fill:#650000;" d="M2280.205,2675.12c14.424-6.235,31.509-7.19,47.844-0.852
						c8.103,3.186,15.918,8.408,22.144,15.649c6.165,7.288,10.408,16.646,11.816,26.409c1.223,9.792-0.337,19.619-3.862,28.091
						c-3.542,8.491-8.777,15.73-14.866,21.531c-12.229,11.616-27.153,18.357-42.805,20.259c9.705-12.463,18.75-23.337,24.866-34.575
						c6.265-11.128,8.926-22.039,7.747-31.409c-0.652-4.712-2.29-9.192-4.885-13.591c-2.703-4.346-6.484-8.489-11.167-12.314
						C2307.617,2686.555,2294.861,2680.916,2280.205,2675.12z"/>
				</g>
			</g>
			<g style="opacity:0.3;">
				<path style="fill:#650000;" d="M3074.72,2632.928c-10.314,0.632-17.709,2.14-21.844,7.735
					c-54.683-85.819-126.881-17.66-129.216-15.422c0.924-17.125,1.8-29.093,1.8-29.093c-27.439-4.524-52.446-10.654-74.922-17.66
					l8.708,4.719c-4.232-1.41-8.465-3.016-12.698-4.67c21.649,49.429-7.687,68.889-42.716,84.895
					c62.176,24.86,68.111,85.966,4.865,116.761c50.986,35.272,27.682,115.156-12.99,110.291
					c7.59,99.441-17.271,123.232-74.581,71.37c-24.909,121.141-59.84,116.47-98.907,59.987c0,103.431-94.382,106.059-142.692,62.662
					c84.311-11.969,44.564-77.257,44.564-77.257c68.938-47.045,20.287-92.436,20.287-92.436
					c50.256-56.775-6.276-85.674-6.276-85.674c76.673-72.928,7.298-109.513,7.298-109.513
					c55.948-72.976,3.698-114.329,3.698-114.329c44.71-36.148,32.353-60.619,19.168-72.879c-1.897-0.292-3.941-0.973-6.228-1.946
					c-24.082-53.516-75.554-13.866-75.554-13.866c-36.391-38.239-66.7,11.822-66.7,11.822
					c-47.142-48.31-76.917,10.946-76.917,10.946c-41.353-42.132-76.284,12.26-76.284,12.26c-58.04-44.515-89.225,9.439-89.225,9.439
					c-30.504-39.894-71.76,5.838-71.76,5.838c-36.585-47.483-70.495,4.281-70.495,4.281c-55.948-55.364-102.215-2.724-107.664,3.94
					h-1.216c-37.072-36.682-105.815-0.875-108.685,0.633h-0.146c-40.137-33.667-83.922-1.947-83.922-1.947
					c-15.471-49.282-64.705-5.156-66.7-3.356c-0.049,0-0.097,0-0.097,0c-26.174-32.255-67.673-6.47-69.278-5.449
					c0,0-0.049,0.049-0.097,0c-40.039-56.532-92.436-11.335-92.436-11.335c-34.104-46.121-74.873-14.304-74.873-14.304
					c-23.742-65.338-73.511-22.72-73.511-22.72c-2.773-1.167-5.498-2.335-8.125-3.503c-15.811-15.763-28.412-33.422-38.337-52.299
					c0.194-23.936,16.444-39.018,16.444-39.018c183.851,82.561,738.808,80.809,1088.606,11.969c0.048,0,0.146,0,0.195-0.049
					c6.519-1.265,12.99-2.579,19.363-3.892c30.942-6.471,60.084-13.476,87.036-21.017c12.99-6.13,25.931-12.357,38.823-18.682
					c95.404-46.607,187.5-96.96,276.336-151.011c1.654,1.605,3.357,3.162,4.865,4.768c1.362,1.362,2.676,2.724,3.941,4.087
					c0.195,0.195,0.389,0.39,0.584,0.633c1.167,1.264,2.286,2.48,3.357,3.745c0.535,0.584,1.07,1.216,1.557,1.8
					c0.973,1.167,1.897,2.335,2.822,3.503c1.459,1.801,2.822,3.649,4.135,5.449c0.924,1.362,1.8,2.675,2.676,3.989
					c0.973,1.508,1.897,3.016,2.773,4.476c0.876,1.508,1.703,2.967,2.481,4.427c0.681,1.314,1.362,2.627,1.897,3.941
					c1.508,3.162,2.773,6.276,3.746,9.341c0.389,1.119,0.73,2.238,1.022,3.357c0.097,0.34,0.195,0.73,0.292,1.07
					c0.292,1.071,0.535,2.141,0.729,3.211c0.243,1.07,0.438,2.14,0.584,3.211c0.049,0.243,0.049,0.487,0.097,0.73
					c0.195,1.265,0.341,2.481,0.389,3.746c0.097,1.216,0.146,2.433,0.146,3.649c0,4.914-0.729,9.487-2.092,13.622h-0.049
					c-4.281,13.135-15.033,22.038-29.628,24.179c9.39,7.638,19.363,14.79,29.823,21.455c-10.071-0.973-19.412-1.46-28.169-1.46
					c-39.235,0-65.533,9.355-82.897,23.422c-25.805,20.906-25.079,60.651,1.026,81.182
					c123.496,97.125,491.932,146.217,458.621-8.179C3292.48,2511.301,3257.792,2621.64,3074.72,2632.928z"/>
			</g>
			<g style="opacity:0.3;">
				<path style="fill:#650000;" d="M2815.996,1916.255l13.379,316.229c2.627,2.238,5.108,4.475,7.444,6.665
					c-88.836,54.051-180.932,104.404-276.336,151.011l-5.546-328.343c30.066-63.246-0.924-89.225-0.924-89.225
					c42.131-50.256,0-84.311,0-84.311c29.142-45.391,0-76.722,0-76.722c32.401-107.566-18.244-178.596-18.244-178.596
					c21.455-21.747-2.773-56.873-2.773-56.873c38.142-46.218-3.892-70.835-3.892-70.835c47.969-67.576-6.665-111.605-6.665-111.605
					c29.142-86.744-12.698-97.934-12.698-97.934c32.645-95.549-30.26-143.86-30.26-143.86c31.769-26.807,60.473-23.888,87.036,0
					c0.195-47.045,25.785-56.824,74.338-33.083c-2.433-66.457,51.083-46.997,51.083-46.997
					c70.543-125.713,115.351-58.624,115.351-58.624s0,0,0.048,0c7.687,27.049,1.265,65.678-19.314,100.366
					c79.738,115.156,37.947,153.055,0,193.386c48.651,19.46,59.597,81.49,6.081,105.815c53.516,24.325,40.38,90.004,0,104.599
					c55.608,46.559,50.256,85.722,8.514,120.41c76.333,44.467,44.272,84.651-8.514,124.059
					C2887.707,1805.721,2860.609,1860.21,2815.996,1916.255z"/>
			</g>
			<g>
				<path style="fill:#6D445B;" d="M3160.491,1989.085c-9.098,24.423-25.25,45.586-46.024,61.348
					c-181.613,137.487-379.037,257.216-592.807,358.409c-26.952,7.541-56.094,14.546-87.036,21.017
					c-6.373,1.313-12.844,2.627-19.363,3.892c-0.049,0.049-0.146,0.049-0.195,0.049c-349.798,68.841-904.755,70.592-1088.606-11.969
					c-128.097-128.146-45.829-380.594-45.829-380.594s10.168,94.139,146.39,116.567c243.107,46.364,697.163,45.537,1002.592-30.65
					c23.109-5.741,45.634-13.379,67.43-22.817h0.049c19.12-8.222,37.607-17.806,55.461-28.606l263.443-159.477
					c119.924-84.798,231.625-170.131,325.959-256.632C3199.704,1716.788,3201.017,1880.74,3160.491,1989.085z"/>
			</g>
			<g style="opacity:0.55;">
				<path style="fill:#FFFFFF;" d="M1337.115,2426.357c-3.698-1.459-7.249-2.968-10.655-4.525
					c-128.097-128.146-45.829-380.594-45.829-380.594s3.017,28.072,28.071,57.213
					C1293.475,2158.633,1262.874,2319.472,1337.115,2426.357z"/>
			</g>
			<g style="opacity:0.55;">
				<path style="fill:#FFFFFF;" d="M2540.926,2133.626c-3.016,1.411-6.033,2.773-9.098,4.087h-0.049
					c-21.796,9.438-44.321,17.076-67.43,22.817c-305.428,76.187-759.485,77.014-1002.592,30.65
					c-68.549-11.287-105.134-40.72-124.594-67.187c21.114,14.644,50.159,27.293,89.858,33.812
					c243.107,46.364,697.163,45.537,1002.592-30.65c23.109-5.741,45.634-13.379,67.43-22.817h0.049
					C2516.746,2105.749,2531.196,2116.598,2540.926,2133.626z"/>
			</g>
			<g>
				<path style="fill:#650000;" d="M1829.683,2499.247c-230.483,0-418.726-23.489-509.199-64.099
					c-1.616-0.728-3.091-1.743-4.346-2.996c-132.896-132.932-52.857-384.802-49.385-395.459c2.129-6.543,8.555-10.713,15.386-9.995
					c6.846,0.713,12.261,6.108,13.003,12.949c0.4,3.311,11.548,83.569,134.248,103.743
					c238.599,45.493,687.251,46.775,996.699-30.386c41.445-10.332,81.45-27.073,118.916-49.753l262.988-159.214
					c136.758-96.719,239.751-177.807,324.097-255.171c5.728-5.256,14.6-5.098,20.132,0.386
					c63.022,62.407,63.564,233.594,21.948,344.961c-9.99,26.726-27.588,50.183-50.889,67.832
					c-182.666,138.311-382.979,259.426-595.376,359.988c-0.747,0.354-1.519,0.642-2.314,0.864
					c-158.286,44.253-400.84,72.676-648.833,76.028C1860.899,2499.14,1845.177,2499.247,1829.683,2499.247z M1334.903,2409.609
					c198.35,86.553,846.592,78.774,1181.636-14.49c210.171-99.6,408.374-219.487,589.121-356.345
					c18.882-14.302,33.12-33.245,41.167-54.78l0,0c39.263-105.066,35.298-245.586-6.201-303.425
					c-83.242,75.229-184.175,154.246-316.201,247.602c-0.283,0.2-0.571,0.391-0.869,0.569l-263.433,159.482
					c-39.966,24.197-82.686,42.065-126.973,53.108c-313.276,78.118-767.593,76.812-1008.862,30.798
					c-82.09-13.491-121.768-51.724-140.835-83.171C1267.247,2164.235,1247.677,2319.889,1334.903,2409.609z M2521.661,2408.842
					h0.049H2521.661z"/>
			</g>
			<g>
				<path style="fill:#650000;" d="M2035.747,2052.503c17.738,57.234-1.681,125.62-50.397,165.401
					c-16.713,13.651-36.931,23.941-60.242,29.234c-43.695,10.28-83.711-0.064-115.587-22.475
					c-50.087-35.206-80.04-100.168-72.519-161.417c2.025-16.775,20.343-26.252,35.162-18.089
					c52.924,29.254,144.012,22.656,202.391-15.613C1997.217,2014.705,2027.734,2026.597,2035.747,2052.503z"/>
			</g>
			<g>
				<path style="fill:#ED4425;" d="M1985.35,2217.904c-16.713,13.651-36.931,23.941-60.242,29.234
					c-43.695,10.28-83.711-0.064-115.587-22.475C1838.959,2145.554,1953.368,2133.25,1985.35,2217.904z"/>
			</g>
			<g>
				<path style="fill:#650000;" d="M1891.182,2265.749c-38.599,0-75.376-14.373-106.255-42.051
					c-45.049-40.376-69.551-104.053-62.422-162.222c1.563-12.742,9.316-23.831,20.742-29.663
					c11.353-5.803,24.805-5.586,35.957,0.576c48.345,26.704,134.131,19.81,187.339-15.051c14.38-9.424,32.007-11.453,48.34-5.589
					c16.587,5.964,29.604,19.578,34.819,36.416c13.501,43.56,7.368,94.148-16.406,135.32
					c-23.159,40.11-60.415,67.764-104.898,77.871C1915.899,2264.296,1903.443,2265.749,1891.182,2265.749z M1760.723,2056.774
					c-1.792,0-3.271,0.562-4.204,1.038c-1.333,0.679-4.492,2.747-5.039,7.214c-6.006,48.984,14.771,102.734,52.93,136.936
					c33.384,29.922,75.049,40.918,117.354,30.969c0.039-0.01,0.078-0.02,0.117-0.027c36.489-8.276,67.08-31.011,86.138-64.014
					c19.78-34.255,24.937-76.155,13.804-112.085c-2.559-8.254-8.687-14.663-16.816-17.585c-7.642-2.754-15.82-1.821-22.466,2.532
					c-62.236,40.784-159.78,48.042-217.446,16.189C1763.531,2057.077,1762.042,2056.774,1760.723,2056.774z"/>
			</g>
			<g>
				<g>
					<ellipse style="fill:#FFFFFF;" cx="2184.249" cy="1807.919" rx="119.474" ry="173.484"/>
				</g>
				<g>
					<path style="fill:#650000;" d="M2184.249,1984.416c-67.539,0-122.485-79.177-122.485-176.497
						c0-97.319,54.946-176.497,122.485-176.497s122.485,79.177,122.485,176.497
						C2306.734,1905.239,2251.788,1984.416,2184.249,1984.416z M2184.249,1637.448c-64.219,0-116.46,76.472-116.46,170.471
						s52.241,170.471,116.46,170.471s116.46-76.472,116.46-170.471S2248.468,1637.448,2184.249,1637.448z"/>
				</g>
			</g>
			<g>
				<g>
					<ellipse style="fill:#FFFFFF;" cx="2184.249" cy="1807.919" rx="119.474" ry="173.484"/>
				</g>
				<g>
					<path style="fill:#650000;" d="M2184.249,1984.416c-67.539,0-122.485-79.177-122.485-176.497
						c0-97.319,54.946-176.497,122.485-176.497s122.485,79.177,122.485,176.497
						C2306.734,1905.239,2251.788,1984.416,2184.249,1984.416z M2184.249,1637.448c-64.219,0-116.46,76.472-116.46,170.471
						s52.241,170.471,116.46,170.471s116.46-76.472,116.46-170.471S2248.468,1637.448,2184.249,1637.448z"/>
				</g>
			</g>
			<g>
				<ellipse style="fill:#650000;" cx="2206.469" cy="1810.651" rx="97.254" ry="141.219"/>
			</g>
			<g>
				<path style="fill:#650000;" d="M2184.249,1634.435c65.986,0,119.473,77.671,119.473,173.484s-53.486,173.484-119.473,173.484
					s-119.473-77.671-119.473-173.484S2118.262,1634.435,2184.249,1634.435 M2184.249,1604.435
					c-42.08,0-80.859,22.656-109.189,63.796c-25.977,37.722-40.283,87.332-40.283,139.688c0,52.356,14.307,101.965,40.283,139.688
					c28.33,41.14,67.109,63.796,109.189,63.796s80.859-22.656,109.189-63.796c25.977-37.722,40.283-87.332,40.283-139.688
					c0-52.356-14.307-101.965-40.283-139.688C2265.108,1627.092,2226.329,1604.435,2184.249,1604.435L2184.249,1604.435z"/>
			</g>
			<g>
				<circle style="fill:#FFFFFF;" cx="2147.103" cy="1764.144" r="43.775"/>
			</g>
			<g style="opacity:0.3;">
				<path style="fill:#650000;" d="M3160.5,1989.1c-9.1,24.399-25.25,45.549-46.05,61.349c-181.6,137.45-379,257.2-592.8,358.4
					c-26.95,7.55-56.1,14.55-87.05,21c99.05-30.55,146.4-212.4,109.45-290.3c5.4-2.949,10.75-6.05,16.05-9.249l263.45-159.451
					c119.95-84.8,231.65-170.15,325.95-256.65c17.95,17.8,30.5,45.95,37.95,79.55C3191.75,1858.35,3182,1931.55,3160.5,1989.1z"/>
			</g>
			<g>
				<path style="fill:#650000;" d="M1136.646,2638.176c-73.76,0-149.702-18.936-210.449-56.528
					c-99.971-61.86-146.68-165.886-131.528-292.917c0.034-0.3,0.083-0.601,0.137-0.898
					c15.781-86.277,77.017-124.675,131.152-124.675c0.415,0,0.82,0.002,1.235,0.007c45.981,0.498,81.377,28.879,88.081,70.623
					c1.279,7.959-4.136,15.447-12.095,16.726c-7.925,1.248-15.444-4.136-16.724-12.097c-5.396-33.582-35.464-45.803-59.575-46.064
					c-0.308-0.002-0.615-0.005-0.923-0.005c-41.885,0-89.487,30.894-102.358,100.298
					c-17.393,147.239,54.521,224.929,117.954,264.182c106.968,66.191,271.289,69.268,366.309,6.855
					c6.733-4.429,15.786-2.556,20.21,4.185c4.429,6.736,2.554,15.786-4.185,20.21
					C1272.935,2621.552,1205.748,2638.173,1136.646,2638.176z"/>
			</g>
			<g>
				<path style="fill:#650000;" d="M950.244,2358.882c4.541-10.146,9.285-19.846,13.555-29.602
					c4.299-9.719,8.164-19.429,11.455-29.053c3.315-9.624,5.703-19.255,7.771-28.523c2.119-9.326,3.023-18.291,4.106-27.283
					l0.137-1.125c0.967-8.037,8.269-13.77,16.309-12.803c6.553,0.791,11.572,5.808,12.681,11.982
					c2.246,12.595,0.82,25.383-2.529,36.968c-3.276,11.689-8.709,22.322-14.751,32.173c-12.241,19.68-27.717,36.296-45.488,49.885
					c-0.94,0.72-2.288,0.542-3.008-0.4c-0.493-0.645-0.564-1.482-0.254-2.178L950.244,2358.882z"/>
			</g>
			<g>
				<path style="fill:#650000;" d="M1036.617,2385.737c-4.556,0-9.043-2.124-11.89-6.113c-4.688-6.56-3.169-15.674,3.389-20.359
					c14.985-10.706,27.134-43.352,20.332-69.399c-5.498-21.067-21.909-33.247-48.779-36.208c-8.013-0.881-13.794-8.093-12.91-16.106
					c0.879-8.015,8.149-13.833,16.104-12.908c52.617,5.796,68.843,38.733,73.833,57.849c10.254,39.297-8.066,83.704-31.606,100.522
					C1042.515,2384.853,1039.552,2385.737,1036.617,2385.737z"/>
			</g>
			<g>
				<path style="fill:#650000;" d="M1145.968,2397.992c-0.474,0-0.942-0.002-1.411-0.007
					c-45.239-0.393-82.769-17.461-100.391-45.659c-4.272-6.836-2.192-15.84,4.644-20.112c6.826-4.27,15.84-2.197,20.112,4.644
					c12.124,19.399,41.201,31.638,75.884,31.938c36.694,0.452,85.244-13.96,111.88-54.976c4.395-6.755,13.428-8.682,20.19-4.292
					c6.758,4.39,8.682,13.43,4.292,20.19C1248.453,2380.099,1190.167,2397.992,1145.968,2397.992z"/>
			</g>
			<g style="opacity:0.3;">
				<path style="fill:#650000;" d="M1326.461,2421.832l-10.606,154.028c-162.882,107.031-545.617,40.915-506.696-285.385
					c8.076-44.175,29.336-74.532,54.926-92.534c-48.31,351.112,371.107,441.164,451.137,204.333L1326.461,2421.832z"/>
			</g>
			<g>
				<path style="fill:#650000;" d="M2364.644,3321.237c-7.1,0-13.32-5.188-14.414-12.422l-27.485-182.341
					c-1.201-7.971,4.287-15.405,12.256-16.606c7.983-1.228,15.405,4.287,16.611,12.256l27.485,182.341
					c1.201,7.971-4.287,15.405-12.256,16.606C2366.104,3321.183,2365.367,3321.237,2364.644,3321.237z"/>
			</g>
			<g>
				<path style="fill:#650000;" d="M2364.749,3291.182c8.667-3.098,17.781-4.707,26.819-5.142c4.519-0.308,9.036-0.205,13.499,0.144
					c4.47,0.261,8.896,0.825,13.242,1.689c8.718,1.538,17.117,4.18,25.154,7.332c8.035,3.091,15.601,7.8,20.854,16.431
					c0.432,0.71,0.205,1.636-0.505,2.068c-0.127,0.078-0.288,0.142-0.427,0.178c-9.702,2.488-17.463,1.956-25.066,0.945
					c-7.595-0.95-15.142-1.27-22.512-1.306c-3.696,0.056-7.351,0.164-10.964,0.4c-1.807,0.115-3.608,0.249-5.388,0.496
					c-1.792,0.149-3.569,0.325-5.33,0.598c-7.063,0.979-13.921,2.39-20.708,4.043l-0.295,0.071c-7.839,1.907-15.74-2.9-17.646-10.74
					C2353.694,3301.074,2357.83,3293.684,2364.749,3291.182z"/>
			</g>
			<g>
				<path style="fill:#650000;" d="M2522.003,3461.318h-169.795c-34.16,0-62.217-26.301-63.862-59.88
					c-2.466-50.173,24.844-91.758,71.26-108.528c7.598-2.749,15.947,1.184,18.687,8.767c2.739,7.581-1.187,15.947-8.765,18.687
					c-33.901,12.246-53.838,42.764-52.026,79.644c0.884,18.01,16.128,32.122,34.707,32.122h169.795
					c19.863,0,36.021-16.16,36.021-36.023v-289.031c0-8.062,6.533-14.595,14.595-14.595s14.595,6.533,14.595,14.595v289.031
					C2587.213,3432.065,2557.96,3461.318,2522.003,3461.318z"/>
			</g>
			<g>
				<path style="fill:#650000;" d="M1701.236,3296.874c-7.251,0-13.54-5.403-14.463-12.788l-18.945-151.616
					c-1.001-7.998,4.673-15.293,12.671-16.292c7.954-0.996,15.293,4.67,16.294,12.673l18.945,151.616
					c1.001,7.998-4.673,15.293-12.671,16.292C1702.452,3296.835,1701.842,3296.874,1701.236,3296.874z"/>
			</g>
			<g style="opacity:0.3;">
				<path style="fill:#650000;" d="M3146.869,2072.138c0,0-100.81,185.676-272.59,228.019l-31.136-64.858l285.177-196.876
					L3146.869,2072.138z"/>
			</g>
			<g style="opacity:0.3;">
				<g>
					<path style="fill:#792937;" d="M807.2,1820.05c-58.3-6.801-105.75-72.35-117.05-157.9l3.2-2.55
						c80.35,145.551,163.35,135.15,248.5-6.25C941.85,1653.35,947,1784.8,807.2,1820.05z"/>
				</g>
				<g>
					<path style="fill:#650000;" d="M807.364,1822.587l-0.454-0.054c-58.662-6.843-107.695-72.661-119.238-160.056l-0.181-1.401
						l6.616-5.278l1.431,2.593c37.422,67.788,76.235,102.534,115.366,103.269c0.42,0.007,0.85,0.012,1.274,0.012
						c40.825,0,83.726-36.865,127.529-109.612l4.316-7.163l0.327,8.354c0.049,1.335,3.603,133.884-136.543,169.224L807.364,1822.587
						z M692.921,1663.972c11.719,83.821,58.403,146.731,114.111,153.542c114.38-29.08,129.99-124.644,132.036-154.846
						c-43.101,69.036-85.757,104.001-126.895,104.004c-0.454,0-0.908-0.005-1.362-0.012
						C770.396,1765.898,730.743,1731.352,692.921,1663.972z"/>
				</g>
			</g>
			<g>
				<g>
					<g>
						<ellipse style="fill:#FFFFFF;" cx="1609.249" cy="1807.919" rx="119.474" ry="173.484"/>
					</g>
					<g>
						<path style="fill:#650000;" d="M1609.249,1984.416c-67.539,0-122.485-79.177-122.485-176.497
							c0-97.319,54.946-176.497,122.485-176.497c67.539,0,122.485,79.177,122.485,176.497
							C1731.734,1905.239,1676.788,1984.416,1609.249,1984.416z M1609.249,1637.448c-64.219,0-116.46,76.472-116.46,170.471
							s52.241,170.471,116.46,170.471c64.219,0,116.46-76.472,116.46-170.471S1673.468,1637.448,1609.249,1637.448z"/>
					</g>
				</g>
				<g>
					<ellipse style="fill:#650000;" cx="1631.469" cy="1810.651" rx="97.254" ry="141.219"/>
				</g>
				<g>
					<path style="fill:#650000;" d="M1609.249,1634.435c65.986,0,119.473,77.671,119.473,173.484s-53.486,173.484-119.473,173.484
						c-65.986,0-119.473-77.671-119.473-173.484S1543.262,1634.435,1609.249,1634.435 M1609.249,1604.435
						c-42.08,0-80.859,22.656-109.189,63.796c-25.977,37.722-40.283,87.332-40.283,139.688c0,52.356,14.307,101.965,40.283,139.688
						c28.33,41.14,67.109,63.796,109.189,63.796c42.08,0,80.859-22.656,109.19-63.796c25.977-37.722,40.283-87.332,40.283-139.688
						c0-52.356-14.307-101.965-40.283-139.688C1690.108,1627.092,1651.329,1604.435,1609.249,1604.435L1609.249,1604.435z"/>
				</g>
				<g>
					<circle style="fill:#FFFFFF;" cx="1572.103" cy="1764.144" r="43.775"/>
				</g>
			</g>
		</g>
	</g>
</g>
</svg>
